<svg version="1.1" id="Layer_1" xmlns="http://www.w3.org/2000/svg" xmlns:xlink="http://www.w3.org/1999/xlink" x="0px" y="0px" viewBox="0 0 500 500" style="width: 179px;" xml:space="preserve" data-imageid="data-storage-2-56" imageName="Data Storage 2" class="illustrations_image">
<style type="text/css">
	.st0_data-storage-2-56{fill:#231F20;}
	.st1_data-storage-2-56{fill:#FFFFFF;}
	.st2_data-storage-2-56{fill:#D1D3D4;}
	.st3_data-storage-2-56{fill:#68E1FD;}
</style>
<g id="Laptop">
	<path class="st0_data-storage-2-56" d="M90.7,317.7c0,0-3.6-0.3-4.1-5.4c-0.5-4.5-16.1-147.6-19.9-182.9c-0.5-4.4,2.6-8.3,6.9-9l223-33.6&#10;&#9;&#9;c3.8-0.6,7.4,2.1,7.9,5.9c0.1,0.4,0.1,0.9,0.1,1.3l-6,146.1L90.7,317.7z"/>
	<path class="st0_data-storage-2-56" d="M90.7,318.4L90.7,318.4c-0.1,0-4.2-0.4-4.8-6c-0.5-4.6-16.7-153.2-19.9-182.9c-0.5-4.8,2.8-9.1,7.5-9.8&#10;&#9;&#9;l223-33.6c4.2-0.6,8.1,2.3,8.7,6.5c0.1,0.5,0.1,0.9,0.1,1.4l-6,146.1c0,0.3-0.2,0.5-0.5,0.6L90.9,318.3&#10;&#9;&#9;C90.8,318.4,90.7,318.4,90.7,318.4z M297.6,87.4c-0.3,0-0.6,0-1,0.1L73.7,121c-4,0.6-6.8,4.2-6.3,8.2c3.2,29.8,19.4,178.4,19.9,183&#10;&#9;&#9;c0.4,4,2.8,4.6,3.3,4.7l207.3-77.4l6-145.6c0.1-3.5-2.6-6.4-6-6.6C297.7,87.4,297.7,87.4,297.6,87.4L297.6,87.4z"/>
	<path class="st0_data-storage-2-56" d="M90.7,317.7l-0.2,6.2c0,0.4,0.2,0.8,0.5,1l120.2,86.7c2.7,2,6.3,2.3,9.2,0.8l210.5-102.5&#10;&#9;&#9;c1.6-0.8,2.6-2.4,2.6-4.1v-3.8l-256.6,15.7L90.7,317.7z"/>
	<path class="st0_data-storage-2-56" d="M216.4,414c-2,0-4-0.6-5.7-1.8L90.5,325.5c-0.5-0.4-0.8-1-0.8-1.6l0.2-6.2c0-0.4,0.3-0.7,0.7-0.7l86.2-0.1&#10;&#9;&#9;l256.5-15.7c0.2,0,0.4,0.1,0.5,0.2c0.1,0.1,0.2,0.3,0.2,0.5v3.8c0,2-1.2,3.9-3,4.7L220.6,413C219.3,413.7,217.9,414,216.4,414z&#10;&#9;&#9; M91.3,318.4l-0.2,5.5c0,0.2,0.1,0.3,0.2,0.4L211.5,411c2.5,1.8,5.8,2.1,8.5,0.7l210.5-102.5c1.3-0.7,2.2-2,2.2-3.5v-3.1&#10;&#9;&#9;l-255.8,15.6L91.3,318.4z"/>
	<path class="st1_data-storage-2-56" d="M91.4,316.8l207.2-76.8l133.4,60c1.2,0.5,1.7,1.8,1.3,3c-0.2,0.5-0.6,1-1.1,1.2L217.9,404.7&#10;&#9;&#9;c-2.2,1-4.7,0.8-6.7-0.6l-120-85.4c-0.5-0.3-0.6-1-0.3-1.5C91,317,91.2,316.9,91.4,316.8z"/>
	<path class="st0_data-storage-2-56" d="M215,406c-1.5,0-3-0.5-4.2-1.4l-120-85.4c-0.5-0.4-0.8-1-0.7-1.6c0.1-0.6,0.5-1.2,1.1-1.4l207.2-76.8&#10;&#9;&#9;c0.2-0.1,0.3-0.1,0.5,0l133.4,60c1.5,0.6,2.2,2.3,1.6,3.8c-0.3,0.7-0.8,1.2-1.5,1.6L218.1,405.3C217.1,405.8,216.1,406,215,406z&#10;&#9;&#9; M298.5,240.8l-207,76.7l0,0c-0.2,0.1-0.3,0.2-0.3,0.4c0,0.2,0.1,0.3,0.2,0.4l120,85.4c1.8,1.3,4.1,1.5,6.1,0.5l214.3-100.5&#10;&#9;&#9;c0.6-0.3,1-0.9,0.9-1.5c0-0.6-0.4-1.2-1-1.5L298.5,240.8z M91.4,316.8L91.4,316.8z"/>
	<path class="st2_data-storage-2-56" d="M187,364.8c-2.2,0-4.4-0.7-6.3-1.9l-53.6-35.7c-2.4-1.6-3-4.8-1.4-7.1c0.6-0.9,1.5-1.6,2.5-2l171.6-63.5&#10;&#9;&#9;c0.2-0.1,0.4-0.1,0.6,0l62,27.4c2.3,1,3.3,3.7,2.3,5.9c-0.5,1-1.3,1.9-2.3,2.3l-170.9,73.7C190.1,364.5,188.6,364.8,187,364.8z&#10;&#9;&#9; M300.1,256.1l-171.3,63.4c-1.9,0.7-2.8,2.8-2.1,4.6c0.3,0.7,0.7,1.3,1.4,1.7l53.6,35.7c2.8,1.8,6.3,2.2,9.3,0.8l0,0l170.9-73.6&#10;&#9;&#9;c1.5-0.6,2.2-2.4,1.5-3.9c-0.3-0.7-0.8-1.2-1.5-1.5L300.1,256.1z"/>
	<path class="st2_data-storage-2-56" d="M295.2,359.8c-0.4,0-0.8-0.1-1.2-0.3L262.6,343c-1.2-0.7-1.7-2.2-1.1-3.4c0.3-0.5,0.7-0.9,1.2-1.1l60.8-26.4&#10;&#9;&#9;l0,0c1.8-0.8,3.8-0.7,5.6,0.1l29.9,13.9c1.3,0.6,1.8,2.1,1.2,3.4c-0.3,0.5-0.7,1-1.2,1.2l-62.8,29.1&#10;&#9;&#9;C295.9,359.7,295.5,359.8,295.2,359.8z M324.2,313.4l-60.8,26.4c-0.3,0.2-0.6,0.5-0.6,0.9c0,0.4,0.2,0.7,0.5,0.9l31.4,16.5&#10;&#9;&#9;c0.3,0.1,0.6,0.1,0.9,0l62.8-29c0.5-0.3,0.7-0.9,0.4-1.4c-0.1-0.2-0.2-0.3-0.4-0.4l-29.9-13.9C327.1,312.8,325.5,312.8,324.2,313.4&#10;&#9;&#9;L324.2,313.4z"/>
</g>
<g id="Screen">
	<polygon class="st1_data-storage-2-56" points="95.7,302.4 78.4,134.6 298.7,97.8 290.7,231.9 &#9;"/>
	<path class="st0_data-storage-2-56" d="M95.7,303.1c-0.1,0-0.2,0-0.3-0.1c-0.2-0.1-0.3-0.3-0.3-0.5L77.7,134.7c0-0.3,0.2-0.6,0.5-0.7l220.3-36.8&#10;&#9;&#9;c0.2,0,0.4,0,0.5,0.2c0.1,0.1,0.2,0.3,0.2,0.5l-8,134c0,0.3-0.2,0.5-0.4,0.6L95.9,303C95.9,303,95.8,303.1,95.7,303.1z M79.1,135.2&#10;&#9;&#9;l17.2,166.4l193.8-70.1L298,98.6L79.1,135.2z"/>
	<path class="st2_data-storage-2-56" d="M104,256.1c-0.2,0-0.4-0.1-0.6-0.3c-0.3-0.3-0.2-0.8,0.1-1.1l155-137.9c0.3-0.3,0.8-0.2,1.1,0.1&#10;&#9;&#9;c0.3,0.3,0.3,0.8,0,1.1c0,0,0,0,0,0l-155,138C104.4,256,104.2,256.1,104,256.1z"/>
	<path class="st2_data-storage-2-56" d="M95.6,167c-0.2,0-0.4-0.1-0.6-0.2c-0.3-0.3-0.3-0.8,0-1.1l25.8-25c0.3-0.3,0.8-0.3,1.1,0s0.3,0.8,0,1.1&#10;&#9;&#9;l-25.8,25C95.9,166.9,95.8,167,95.6,167z"/>
	<path class="st2_data-storage-2-56" d="M104,207.7c-0.2,0-0.5-0.1-0.6-0.3c-0.3-0.3-0.2-0.8,0.1-1.1c0,0,0,0,0,0l14.2-11.3c0.3-0.3,0.8-0.2,1.1,0.1&#10;&#9;&#9;s0.2,0.8-0.1,1.1l0,0l-14.2,11.3C104.3,207.6,104.2,207.7,104,207.7z"/>
</g>
<g id="File_Organizer">
	<polygon class="st0_data-storage-2-56" points="128.4,172.5 126.5,150.4 264.8,128 264.8,241.6 137.1,270.1 137.1,263.6 &#9;"/>
	<path class="st0_data-storage-2-56" d="M137.1,270.8c-0.2,0-0.3-0.1-0.4-0.2c-0.2-0.1-0.3-0.3-0.3-0.5v-6.5l-8.7-91l0,0l-2-22.1&#10;&#9;&#9;c0-0.4,0.2-0.7,0.6-0.8l138.3-22.5c0.2,0,0.4,0,0.6,0.2c0.2,0.1,0.2,0.3,0.2,0.5v113.6c0,0.3-0.2,0.6-0.5,0.7l-127.6,28.5&#10;&#9;&#9;L137.1,270.8z M129.1,172.5l8.7,91v5.7L264.1,241V128.8L127.2,151L129.1,172.5L129.1,172.5z"/>
	<polygon class="st1_data-storage-2-56" points="129.7,185.5 127,156.4 221.9,141.2 199.9,213.1 &#9;"/>
	<path class="st0_data-storage-2-56" d="M199.9,213.8c-0.1,0-0.2,0-0.2-0.1l-70.2-27.6c-0.2-0.1-0.4-0.3-0.4-0.5l-2.7-29.1c0-0.3,0.2-0.6,0.5-0.7&#10;&#9;&#9;l94.9-15.2c0.2,0,0.4,0,0.6,0.2c0.2,0.2,0.2,0.4,0.1,0.6l-21.9,71.9c-0.1,0.2-0.2,0.3-0.3,0.4C200.1,213.7,200,213.8,199.9,213.8z&#10;&#9;&#9; M130.3,185.1l69.2,27.2l21.4-70.3l-93.3,15L130.3,185.1z"/>
	<path class="st2_data-storage-2-56" d="M145.2,244.1c-0.4-2.4-7.8-81-7.8-81l50.2-8.7v-9.5l58.7-11.3l4.6,6.2l28.9-5l1.6,73.3L145.2,244.1z"/>
	<path class="st0_data-storage-2-56" d="M145.2,244.8c-0.1,0-0.2,0-0.4-0.1c-0.1-0.1-0.3-0.3-0.3-0.4c-0.4-2.4-7.5-77.8-7.8-81.1&#10;&#9;&#9;c0-0.3,0.2-0.6,0.5-0.7l49.7-8.6v-9c0-0.3,0.2-0.6,0.5-0.6l58.7-11.2c0.2,0,0.5,0.1,0.6,0.2l4.4,5.9l28.5-5c0.2,0,0.4,0,0.5,0.1&#10;&#9;&#9;c0.1,0.1,0.2,0.3,0.2,0.5l1.6,73.3c0,0.3-0.2,0.6-0.5,0.6l-136.2,36C145.3,244.8,145.2,244.8,145.2,244.8z M138,163.7&#10;&#9;&#9;c0.6,6.9,6.8,71.9,7.7,79.7l135-35.7l-1.5-72.1l-28.1,4.9c-0.2,0-0.5-0.1-0.6-0.2l-4.4-5.9l-57.8,11.1v9c0,0.3-0.2,0.6-0.5,0.6&#10;&#9;&#9;L138,163.7z"/>
	<polygon class="st1_data-storage-2-56" points="168.9,206.9 164.7,163.1 253.8,147.1 253.8,194.5 &#9;"/>
	<path class="st0_data-storage-2-56" d="M168.9,207.6c-0.1,0-0.3-0.1-0.4-0.1c-0.1-0.1-0.2-0.3-0.2-0.4l-4.2-43.8c0-0.3,0.2-0.6,0.5-0.7l89.1-16&#10;&#9;&#9;c0.2,0,0.4,0,0.5,0.1c0.1,0.1,0.2,0.3,0.2,0.5v47.4c0,0.3-0.2,0.6-0.6,0.6L169,207.6L168.9,207.6z M165.4,163.7l4.1,42.6l83.7-12.3&#10;&#9;&#9;v-46L165.4,163.7z"/>
	<path class="st2_data-storage-2-56" d="M155.9,241.6c-0.4-2.4,0-72.3,0-72.3l56.9-9.9v-9.5l58.7-11.3l4.6,6.2l20.9-4.6l-5.8,67.5L155.9,241.6z"/>
	<path class="st0_data-storage-2-56" d="M155.9,242.2c-0.1,0-0.2,0-0.4-0.1c-0.1-0.1-0.3-0.3-0.3-0.4c-0.4-2.4-0.1-69.6,0-72.4c0-0.3,0.2-0.6,0.5-0.6&#10;&#9;&#9;l56.4-9.8v-9c0-0.3,0.2-0.6,0.5-0.6l58.7-11.2c0.2,0,0.5,0,0.6,0.2l4.4,5.9l20.5-4.5c0.4-0.1,0.7,0.2,0.8,0.5c0,0.1,0,0.1,0,0.2&#10;&#9;&#9;l-5.8,67.5c0,0.3-0.2,0.5-0.5,0.6L156,242.3L155.9,242.2z M156.5,169.8c-0.1,23-0.2,64.8,0,71l134.2-33.5l5.7-66.2l-20.1,4.4&#10;&#9;&#9;c-0.3,0.1-0.5,0-0.7-0.2l-4.4-5.9l-57.8,11.1v9c0,0.3-0.2,0.6-0.5,0.6L156.5,169.8z"/>
	<path class="st1_data-storage-2-56" d="M183.9,222.1v-53.6c0,0,93.3-16.8,93.6-16s0,73.3,0,73.3L183.9,222.1z"/>
	<path class="st0_data-storage-2-56" d="M277.4,226.3L277.4,226.3l-93.6-3.6c-0.3,0-0.6-0.3-0.6-0.6v-53.6c0-0.3,0.2-0.6,0.5-0.6&#10;&#9;&#9;c0.2,0,23.6-4.2,46.7-8.3c47.3-8.3,47.3-8.1,47.6-7.3s0.1,51.6,0,73.5c0,0.2-0.1,0.3-0.2,0.5C277.7,226.3,277.6,226.3,277.4,226.3z&#10;&#9;&#9; M184.5,221.4l92.3,3.6c0.1-23.6,0.2-66.6,0-72c-6.4,0.6-67.7,11.5-92.3,15.9L184.5,221.4z"/>
	<path class="st2_data-storage-2-56" d="M193.1,248.9c-0.4-2.4-0.8-76.3-0.8-76.3l44.8-7.8l2-7.8l65.9-14.6l4.6,6.2l20.9-4.6l-5.8,67.5L193.1,248.9z"/>
	<path class="st0_data-storage-2-56" d="M193.1,249.5c-0.3,0-0.6-0.2-0.6-0.5c-0.4-2.4-0.8-73.4-0.8-76.4c0-0.3,0.2-0.6,0.5-0.6l44.4-7.7l1.9-7.4&#10;&#9;&#9;c0.1-0.2,0.3-0.4,0.5-0.5l65.9-14.6c0.2,0,0.5,0,0.6,0.2l4.4,5.9l20.5-4.5c0.3-0.1,0.7,0.1,0.8,0.5c0,0.1,0,0.1,0,0.2l-5.8,67.5&#10;&#9;&#9;c0,0.3-0.2,0.5-0.5,0.6l-131.7,37.3C193.2,249.5,193.1,249.5,193.1,249.5z M192.9,173.1c0.1,24.3,0.4,68.6,0.7,75l130.5-37&#10;&#9;&#9;l5.7-66.2l-20.1,4.4c-0.2,0.1-0.5,0-0.6-0.2l-4.4-5.9l-65.1,14.4l-1.9,7.5c-0.1,0.2-0.3,0.4-0.5,0.5L192.9,173.1z"/>
	<polygon class="st3_data-storage-2-56 targetColor" points="128.4,172.5 137.1,263.6 229.3,305 224.6,200.5 &#9;"/>
	<path class="st0_data-storage-2-56" d="M229.3,305.6c-0.1,0-0.2,0-0.3-0.1l-92.2-41.4c-0.2-0.1-0.4-0.3-0.4-0.5l-8.7-91.1c0-0.4,0.2-0.7,0.6-0.7&#10;&#9;&#9;c0.1,0,0.2,0,0.2,0l96.2,28c0.3,0.1,0.4,0.3,0.5,0.6l4.7,104.5C230,305.3,229.7,305.6,229.3,305.6&#10;&#9;&#9;C229.4,305.6,229.4,305.6,229.3,305.6L229.3,305.6z M137.7,263.1l91,40.8L224,201l-94.8-27.6L137.7,263.1z"/>
	<polygon class="st3_data-storage-2-56 targetColor" points="227.4,310.5 221.9,179.2 226.7,180.9 232.1,312.2 &#9;"/>
	<path class="st0_data-storage-2-56" d="M232.1,312.8c-0.1,0-0.1,0-0.2,0l-4.7-1.7c-0.2-0.1-0.4-0.3-0.4-0.6l-5.5-131.3c0-0.2,0.1-0.4,0.3-0.5&#10;&#9;&#9;c0.2-0.1,0.4-0.2,0.6-0.1l4.9,1.7c0.2,0.1,0.4,0.3,0.4,0.6l5.4,131.2c0,0.2-0.1,0.4-0.3,0.5C232.4,312.8,232.2,312.8,232.1,312.8z&#10;&#9;&#9; M228,310l3.4,1.2l-5.3-129.9l-3.6-1.2L228,310z"/>
	<polygon class="st3_data-storage-2-56 targetColor" points="232.1,312.2 365.5,260.6 367.3,147.1 226.7,180.9 &#9;"/>
	<path class="st0_data-storage-2-56" d="M232.1,312.8c-0.1,0-0.2,0-0.4-0.1c-0.2-0.1-0.3-0.3-0.3-0.5L226.1,181c0-0.3,0.2-0.6,0.5-0.6l140.6-33.8&#10;&#9;&#9;c0.3-0.1,0.7,0.1,0.8,0.5c0,0.1,0,0.1,0,0.2l-1.8,113.5c0,0.3-0.2,0.5-0.4,0.6l-133.4,51.5C232.3,312.8,232.2,312.8,232.1,312.8z&#10;&#9;&#9; M227.4,181.4l5.3,129.8l132.2-51.1l1.8-112.3L227.4,181.4z"/>
	<polygon class="st3_data-storage-2-56 targetColor" points="221.9,179.2 362,145.3 367.3,147.1 226.7,180.9 &#9;"/>
	<path class="st0_data-storage-2-56" d="M226.7,181.6c-0.1,0-0.1,0-0.2,0l-4.9-1.7c-0.3-0.1-0.5-0.5-0.4-0.8c0.1-0.2,0.2-0.4,0.5-0.4l140.1-33.9&#10;&#9;&#9;c0.1,0,0.2,0,0.4,0l5.3,1.8c0.3,0.1,0.4,0.4,0.4,0.6c0,0.3-0.2,0.5-0.5,0.6l-140.6,33.8L226.7,181.6z M224.1,179.3l2.6,0.9L365,147&#10;&#9;&#9;l-3-1L224.1,179.3z"/>
	<path class="st1_data-storage-2-56" d="M289,226.5c-1.3,0-2.5-0.5-3.4-1.4c-1-0.8-1.5-2.1-1.5-3.4c0.1-2.3-0.8-22.1-0.8-22.3c0-0.4,0.2-0.7,0.5-0.8&#10;&#9;&#9;l37.7-11.3c0.2-0.1,0.5,0,0.7,0.1c0.2,0.1,0.3,0.4,0.3,0.6c0,0.9,0,21.9,0,23.3c-0.1,2-1.1,3.8-2.7,5c-1.9,1.5-28,9.6-30.3,9.9&#10;&#9;&#9;C289.4,226.4,289.2,226.5,289,226.5z M284.9,200c0.1,3.4,0.9,19.7,0.8,21.8c0,0.8,0.4,1.6,1,2.1c0.7,0.7,1.7,1,2.7,0.9&#10;&#9;&#9;c2.4-0.4,28-8.4,29.5-9.6c1.3-0.9,2.1-2.3,2.1-3.8c0-1.2,0-17.9,0-22.2L284.9,200z"/>
	<path class="st0_data-storage-2-56" d="M331.1,233.4c-1.9,0-3.5,1.6-3.5,3.5c0,0.9,0.3,1.7,0.9,2.3c-0.5,0.3-1,0.5-1.6,0.8c-2.1,0.9-4.1,1.9-6.2,2.8&#10;&#9;&#9;c-4.2,1.9-8.4,3.6-12.7,5.2c-4.2,1.6-8.6,2.9-13,3.9c-2.7,0.6-7.4,2.1-9.7-0.1c-3.2-3.2-8.2,1.8-5,4.9c4.3,4.3,10.5,3.3,15.9,2.1&#10;&#9;&#9;c6.1-1.4,12.1-3.3,17.9-5.6c5.9-2.3,11.7-4.8,17.4-7.6c2.5-1.2,4.8-3.3,4.9-6.2C336.6,236.2,334.2,233.6,331.1,233.4&#10;&#9;&#9;C331.1,233.4,331.1,233.4,331.1,233.4z"/>
</g>
</svg>